<mxfile host="app.diagrams.net" modified="2021-04-08T03:37:19.167Z" agent="5.0 (Windows NT 10.0; Win64; x64) AppleWebKit/537.36 (KHTML, like Gecko) Chrome/88.0.4324.150 Safari/537.36 Edg/88.0.705.63" etag="izfydH_RaGg33Vm30gPq" version="14.5.8" type="github">
  <diagram name="Page-1" id="c7558073-3199-34d8-9f00-42111426c3f3">
    <mxGraphModel dx="782" dy="446" grid="1" gridSize="10" guides="1" tooltips="1" connect="1" arrows="1" fold="1" page="1" pageScale="1" pageWidth="826" pageHeight="1169" background="#ffffff" math="0" shadow="0">
      <root>
        <mxCell id="0" />
        <mxCell id="1" parent="0" />
        <mxCell id="mvWA5bgNjp1QDwD_VI6N-96" value="Basic edition" style="rounded=1;whiteSpace=wrap;html=1;" vertex="1" parent="1">
          <mxGeometry x="160" y="180" width="120" height="50" as="geometry" />
        </mxCell>
        <mxCell id="mvWA5bgNjp1QDwD_VI6N-97" value="Standard edition" style="rounded=1;whiteSpace=wrap;html=1;" vertex="1" parent="1">
          <mxGeometry x="320" y="180" width="120" height="50" as="geometry" />
        </mxCell>
        <mxCell id="mvWA5bgNjp1QDwD_VI6N-98" value="Enterprise edition" style="rounded=1;whiteSpace=wrap;html=1;" vertex="1" parent="1">
          <mxGeometry x="480" y="180" width="120" height="50" as="geometry" />
        </mxCell>
        <mxCell id="mvWA5bgNjp1QDwD_VI6N-99" value="" style="curved=1;endArrow=blockThin;html=1;exitX=0.5;exitY=0;exitDx=0;exitDy=0;entryX=0.5;entryY=0;entryDx=0;entryDy=0;endFill=1;" edge="1" parent="1" source="mvWA5bgNjp1QDwD_VI6N-97" target="mvWA5bgNjp1QDwD_VI6N-98">
          <mxGeometry width="50" height="50" relative="1" as="geometry">
            <mxPoint x="200" y="140" as="sourcePoint" />
            <mxPoint x="250" y="90" as="targetPoint" />
            <Array as="points">
              <mxPoint x="380" y="150" />
              <mxPoint x="510" y="140" />
            </Array>
          </mxGeometry>
        </mxCell>
        <mxCell id="mvWA5bgNjp1QDwD_VI6N-100" value="&lt;font style=&quot;font-size: 14px&quot;&gt;Upgrade&lt;/font&gt;" style="edgeLabel;html=1;align=center;verticalAlign=middle;resizable=0;points=[];" vertex="1" connectable="0" parent="mvWA5bgNjp1QDwD_VI6N-99">
          <mxGeometry x="-0.2234" y="-2" relative="1" as="geometry">
            <mxPoint x="28" y="-8.01" as="offset" />
          </mxGeometry>
        </mxCell>
        <mxCell id="mvWA5bgNjp1QDwD_VI6N-101" value="" style="curved=1;endArrow=blockThin;html=1;exitX=0.5;exitY=1;exitDx=0;exitDy=0;entryX=0.75;entryY=1;entryDx=0;entryDy=0;endFill=1;" edge="1" parent="1" source="mvWA5bgNjp1QDwD_VI6N-98" target="mvWA5bgNjp1QDwD_VI6N-96">
          <mxGeometry width="50" height="50" relative="1" as="geometry">
            <mxPoint x="330" y="350" as="sourcePoint" />
            <mxPoint x="380" y="300" as="targetPoint" />
            <Array as="points">
              <mxPoint x="380" y="300" />
            </Array>
          </mxGeometry>
        </mxCell>
        <mxCell id="mvWA5bgNjp1QDwD_VI6N-102" value="&lt;font style=&quot;font-size: 14px&quot;&gt;Downgrade&lt;/font&gt;" style="edgeLabel;html=1;align=center;verticalAlign=middle;resizable=0;points=[];" vertex="1" connectable="0" parent="mvWA5bgNjp1QDwD_VI6N-101">
          <mxGeometry x="-0.1057" y="-23" relative="1" as="geometry">
            <mxPoint x="14.150000000000002" y="-6.650000000000001" as="offset" />
          </mxGeometry>
        </mxCell>
      </root>
    </mxGraphModel>
  </diagram>
</mxfile>
